<svg version="1.1" xmlns="http://www.w3.org/2000/svg" xmlns:xlink="http://www.w3.org/1999/xlink" width="48" height="48"><defs><linearGradient x1="14.22989" y1="15.03592" x2="35.53788" y2="34.73184" gradientUnits="userSpaceOnUse" id="color-1"><stop offset="0.25" stop-color="#000000" stop-opacity="0.26"></stop><stop offset="1" stop-color="#000000" stop-opacity="0"></stop></linearGradient><filter id="dropshadow-base"><feColorMatrix type="matrix" values="0 0 0 0 0  0 0 0 0 0  0 0 0 0 0  0 0 0 .8 0"></feColorMatrix> <feOffset dx="0" dy="1"></feOffset> <feGaussianBlur stdDeviation="1"></feGaussianBlur> <feComposite in="SourceGraphic"></feComposite></filter><filter id="dropshadow-banner" x="-10%" y="-10%" width="120%" height="130%"><feColorMatrix type="matrix" values="0 0 0 0 0  0 0 0 0 0  0 0 0 0 0  0 0 0 .4 0"></feColorMatrix> <feOffset dx="0" dy="1"></feOffset> <feGaussianBlur stdDeviation="0.5"></feGaussianBlur> <feComposite in="SourceGraphic"></feComposite></filter></defs><g fill="none" fill-rule="nonzero" stroke="none" stroke-width="none" stroke-linecap="butt" stroke-linejoin="miter" stroke-miterlimit="10" stroke-dasharray="" stroke-dashoffset="0" font-family="none" font-weight="none" font-size="none" text-anchor="none" style="mix-blend-mode: normal"><path d="M7,43c-1.10457,0 -2,-0.89543 -2,-2v-34c0,-1.10457 0.89543,-2 2,-2h34c1.10457,0 2,0.89543 2,2v34c0,1.10457 -0.89543,2 -2,2z" id="base 1 5 1" fill="#4caf50" stroke-width="1"></path><path d="M21.37122,16.80369c-0.51493,0 -1.01075,0.06886 -1.47896,0.19809c0.91464,0.07472 1.79276,0.49826 2.42552,1.13102l1.16289,1.16289h1.42795c0.11588,-0.29846 0.27923,-0.57881 0.47987,-0.83421l-0.24313,-0.24313c-1.0279,-0.88086 -2.37795,-1.41465 -3.77414,-1.41465zM24.85426,21.06346c-0.16639,-0.43262 -0.43303,-0.8272 -0.76872,-1.16289c-0.23206,-0.23206 -0.49712,-0.43598 -0.78489,-0.60488h-0.21416c-0.01911,-0.04969 -0.03954,-0.09887 -0.06125,-0.14752c-0.51185,-0.24901 -1.0801,-0.39045 -1.65403,-0.39045c-1.94914,0 -3.41954,1.4704 -3.41954,3.41954c0,1.64499 1.04126,3.27671 2.82916,5.18593c0.92886,0.88484 1.97509,1.83429 3.11657,2.87015l0.10259,0.09282l0.10259,-0.09282c4.64569,-4.2158 7.7135,-7.00028 7.7135,-9.82384c0,-0.49706 -0.09563,-0.96299 -0.27043,-1.38134c-0.41835,-0.1748 -0.88428,-0.27043 -1.38134,-0.27043c-1.5046,0 -2.97011,0.97213 -3.48793,2.30575zM33.77011,20.40948c0,-1.04449 -0.28335,-2.01038 -0.77909,-2.8267c-0.81632,-0.49574 -1.78221,-0.77909 -2.8267,-0.77909c-0.5011,0 -0.99627,0.06876 -1.47272,0.19765c0.85179,0.06632 1.59691,0.4187 2.14565,0.96745l1.76777,1.76777c0.56037,0.56037 0.91597,1.32552 0.97128,2.19993c0.12771,-0.49975 0.19382,-1.00667 0.19382,-1.527zM15.99766,22.17725c0,2.27402 1.2628,4.29176 3.41054,6.57535c0.95529,0.91168 2.02017,1.87827 3.17513,2.9267l1.41667,1.28477l1.36362,-1.23666c-1.4322,-1.3001 -2.70666,-2.46314 -3.77772,-3.5342l-1.76777,-1.76777c-2.15851,-2.15851 -3.4909,-3.94345 -3.62332,-5.72374c-0.12862,0.46721 -0.19715,0.96187 -0.19715,1.47555zM32.21361,16.59243l0,0l0,0l1.76777,1.76777c0,0 0,0 0,0c0.96663,0.96663 1.5565,2.31002 1.5565,3.81706c0,3.68822 -3.32184,6.70229 -8.35344,11.26982l-1.41667,1.28477l-1.41667,-1.28477c-1.55638,-1.41283 -2.94916,-2.67702 -4.13065,-3.85851l-1.76777,-1.76777c-2.63815,-2.63815 -4.22279,-4.86393 -4.22279,-7.41131c0,-3.01408 2.35948,-5.37356 5.37356,-5.37356c1.54845,0 3.04017,0.65657 4.09859,1.715l0.30909,0.30909c1.06516,-1.2382 2.69133,-2.02409 4.38542,-2.02409c1.50704,0 2.85043,0.58987 3.81706,1.5565z" fill="url(#color-1)" stroke-width="1"></path><path d="M28.39655,15.03592c-1.7,0 -3.33161,0.79138 -4.39655,2.03707c-1.06494,-1.24569 -2.69655,-2.03707 -4.39655,-2.03707c-3.01408,0 -5.37356,2.35948 -5.37356,5.37356c0,3.68822 3.32184,6.70229 8.35344,11.26982l1.41667,1.28477l1.41667,-1.28477c5.03161,-4.56753 8.35344,-7.5816 8.35344,-11.26982c0,-3.01408 -2.35948,-5.37356 -5.37356,-5.37356zM24.10259,30.23333l-0.10259,0.09282l-0.10259,-0.09282c-4.64569,-4.2158 -7.7135,-7.00028 -7.7135,-9.82384c0,-1.94914 1.4704,-3.41954 3.41954,-3.41954c1.5046,0 2.97011,0.97213 3.48304,2.30575h1.82213c0.51782,-1.33362 1.98333,-2.30575 3.48793,-2.30575c1.94914,0 3.41954,1.4704 3.41954,3.41954c0,2.82356 -3.06781,5.60804 -7.7135,9.82384z" fill="none" stroke-width="0"></path><path d="M33.77011,20.40948c0,3.68822 -3.32184,6.70229 -8.35344,11.26982l-1.41667,1.28477l-1.41667,-1.28477c-5.03161,-4.56753 -8.35344,-7.5816 -8.35344,-11.26982c0,-3.01408 2.35948,-5.37356 5.37356,-5.37356c1.7,0 3.33161,0.79138 4.39655,2.03707c1.06494,-1.24569 2.69655,-2.03707 4.39655,-2.03707c3.01408,0 5.37356,2.35948 5.37356,5.37356zM31.81609,20.40948c0,-1.94914 -1.4704,-3.41954 -3.41954,-3.41954c-1.5046,0 -2.97011,0.97213 -3.48793,2.30575h-1.82213c-0.51293,-1.33362 -1.97845,-2.30575 -3.48304,-2.30575c-1.94914,0 -3.41954,1.4704 -3.41954,3.41954c0,2.82356 3.06781,5.60804 7.7135,9.82384l0.10259,0.09282l0.10259,-0.09282c4.64569,-4.2158 7.7135,-7.00028 7.7135,-9.82384z" fill="#ffffff" stroke-width="0"></path><path d="M2,24c0,-12.15026 9.84974,-22 22,-22c12.15026,0 22,9.84974 22,22c0,12.15026 -9.84974,22 -22,22c-12.15026,0 -22,-9.84974 -22,-22z" id="base 1 1 1" fill="none" stroke-width="1"></path><g fill="#000000" stroke-width="1" font-family="Roboto, sans-serif" font-weight="400" font-size="14" text-anchor="start"></g><rect x="2" y="2" width="44" height="22" fill="none" stroke-width="1"></rect><path d="M2,24v-22h44v22z" fill="none" stroke-width="1"></path><path d="M2,24v-22h44v22z" fill="none" stroke-width="1"></path><path d="M2,24v-22h44v22z" fill="none" stroke-width="1"></path><path d="M2,24v-22h44v22z" fill="none" stroke-width="1"></path></g></svg>